<svg width="160" height="99" viewBox="0 0 160 99" fill="none" xmlns="http://www.w3.org/2000/svg">
<path d="M8.84 34.88C14 10.64 16.04 3.79999 18.2 1.64C19.04 1.16 19.88 1.04 21.56 0.799995C28.16 0.0799975 28.88 5.48 28.4 9.68C27.92 12.68 28.4 13.16 29.24 16.16C29.72 17.84 33.56 28.04 36.56 37.04C41.24 50.72 42.08 53.24 42.92 53.24C45.08 54.08 48.08 52.76 48.8 56.24C50.48 60.44 45.08 60.8 45.08 60.8C45.08 61.28 49.28 75.68 49.28 76.16C49.16 83.24 36.44 82.28 36.08 77.48C35.6 76.64 31.04 63.44 31.04 63.44C30.2 62.96 20.36 66.8 19.52 66.8C17.84 67.64 18.2 66.8 16.52 76.64C16.04 80 15.68 83.36 15.2 83.84C10.16 89.48 0.44 83.24 2 78.32C2.48 70.64 5 52.4 8.84 34.88ZM28.04 53.24C28.04 53.24 26.72 49.4 25.4 45.56C24.08 41.36 22.88 38.24 22.88 38.24C22.4 38.24 19.4 55.76 19.88 55.76C19.88 56.24 28.04 53.72 28.04 53.24ZM64.1225 8.96C66.0425 5.35999 68.0825 3.92 71.9225 2.36C77.2025 0.199996 85.2425 2.36 88.6025 5.95999C95.4425 13.28 91.9625 22.04 90.5225 25.64C88.6025 28.76 84.7625 35.12 81.8825 38.24C80.9225 39.32 80.4425 40.76 80.4425 40.76C83.3225 46.88 90.5225 66.44 90.5225 66.44C91.4825 66.44 92.9225 62.24 93.4025 60.08C93.8825 56.96 93.4025 55.4 91.0025 54.92C88.6025 54.44 86.6825 52.4 86.2025 50.24C86.2025 45.08 96.2825 45.44 102.043 51.2C108.883 59.12 102.403 72.2 98.5625 76.28C95.6825 79.88 95.8025 79.88 97.7225 85.64C99.6425 92.96 99.5225 93.92 98.0825 94.4C90.7625 98.12 90.0425 90.32 89.0825 88.16C87.1625 84.08 86.6825 83.48 85.7225 83.96C85.2425 83.96 82.3625 84.56 79.0025 84.56C58.4825 88.52 54.2825 73.28 54.5225 66.44C54.8825 53.6 62.6825 42.92 64.1225 41.36C66.5225 37.76 66.2825 38.36 64.1225 30.92C60.4025 18.2 62.2025 12.56 64.1225 8.96ZM76.6025 24.68C79.9625 20 81.4025 15.32 80.4425 11.72C79.9625 9.56 78.5225 10.04 76.6025 12.2C74.6825 14.84 73.7225 18.56 74.2025 22.64C74.6825 27.32 75.1625 27.32 76.6025 24.68ZM81.8825 74.12C82.3625 74.12 79.9625 68.36 75.1625 57.44C73.7225 54.32 72.8825 51.68 72.8825 51.68C65.8025 53.48 64.4825 68.36 66.7625 71.24C70.4825 76.04 81.8825 74.12 81.8825 74.12ZM122.887 10.4C128.647 4.64 131.887 2.72 137.167 1.76C138.127 1.28 140.527 1.28 142.447 1.28C150.007 1.76 155.287 5 156.727 11.24C158.167 15.08 158.047 18.92 157.087 21.8C156.367 27.2 146.647 26.12 144.727 22.28C143.287 21.32 143.287 21.32 143.767 16.52C144.247 12.68 144.247 11.72 143.287 11.72C142.327 11.72 138.607 15.08 135.247 18.44C127.207 27.92 124.807 34.16 127.687 37.52C128.167 38.48 131.407 40.28 135.727 42.68C147.127 48.44 150.967 51.68 154.327 57.92C159.487 77 147.127 82.16 140.047 84.56C134.767 86 130.087 85.52 125.767 83.6C119.407 80.96 115.687 72.68 115.687 70.28C115.687 66.44 117.607 65.12 122.407 65.6C127.207 66.08 129.967 68.36 129.967 71.72C130.447 75.08 136.687 72.68 139.567 67.88C141.487 64.52 141.487 61.76 139.567 58.4C137.647 56 135.727 54.68 126.247 49.88C115.327 44.6 111.967 40.76 111.007 33.68C110.047 27.44 115.327 17.48 122.887 10.4Z" fill="#F7DE39"/>
</svg>
