<svg width="31" height="30" viewBox="0 0 31 30" fill="none" xmlns="http://www.w3.org/2000/svg">
<path d="M30.1596 12.1871C30.3509 13.1913 30.4551 14.2412 30.4551 15.3368C30.4551 23.9064 24.6022 30 15.7622 30C13.7519 30.0006 11.7611 29.613 9.90368 28.8594C8.04626 28.1058 6.35858 27.0009 4.93706 25.6079C3.51554 24.2149 2.38805 22.5611 1.61901 20.741C0.849978 18.9208 0.454466 16.97 0.455079 15C0.454466 13.03 0.849978 11.0792 1.61901 9.25904C2.38805 7.43888 3.51554 5.78506 4.93706 4.39206C6.35858 2.99906 8.04626 1.89419 9.90368 1.14058C11.7611 0.386977 13.7519 -0.000599942 15.7622 6.97052e-07C19.8953 6.97052e-07 23.3489 1.49025 25.9985 3.91L21.6835 8.13846V8.12779C20.0772 6.6284 18.0387 5.8589 15.7622 5.8589C10.7116 5.8589 6.60653 10.0401 6.60653 14.9909C6.60653 19.9401 10.7116 24.1304 15.7622 24.1304C20.3447 24.1304 23.4639 21.5629 24.1046 18.0369H15.7622V12.1871H30.1612H30.1596Z" fill="white"/>
</svg>
