<svg width="31" height="32" viewBox="0 0 31 32" fill="none" xmlns="http://www.w3.org/2000/svg">
<path fill-rule="evenodd" clip-rule="evenodd" d="M1.29102 3.78392C1.29102 3.13396 1.54114 2.51063 1.98637 2.05104C2.4316 1.59145 3.03545 1.33326 3.6651 1.33326H27.331C27.643 1.33273 27.9521 1.39574 28.2405 1.51868C28.5289 1.64162 28.791 1.82207 29.0118 2.0497C29.2326 2.27734 29.4077 2.54769 29.5271 2.84527C29.6465 3.14285 29.7078 3.46182 29.7077 3.78392V28.2132C29.708 28.5354 29.6468 28.8545 29.5276 29.1522C29.4083 29.4499 29.2334 29.7205 29.0128 29.9483C28.7922 30.1762 28.5302 30.3569 28.2418 30.4802C27.9535 30.6034 27.6444 30.6668 27.3323 30.6666H3.6651C3.35322 30.6666 3.0444 30.6031 2.75628 30.4799C2.46816 30.3567 2.20638 30.176 1.98591 29.9483C1.76544 29.7206 1.59059 29.4503 1.47136 29.1528C1.35213 28.8553 1.29085 28.5365 1.29102 28.2146V3.78392ZM12.5388 12.5173H16.3867V14.5119C16.9421 13.3653 18.363 12.3333 20.4981 12.3333C24.5914 12.3333 25.5614 14.6173 25.5614 18.8079V26.5706H21.4191V19.7626C21.4191 17.3759 20.8636 16.0293 19.4531 16.0293C17.4963 16.0293 16.6825 17.4813 16.6825 19.7626V26.5706H12.5388V12.5173ZM5.43468 26.3879H9.57835V12.3333H5.43468V26.3866V26.3879ZM10.1712 7.74925C10.179 8.11548 10.1159 8.47964 9.98553 8.82034C9.85516 9.16104 9.66018 9.47143 9.41202 9.7333C9.16387 9.99516 8.86754 10.2032 8.54044 10.3453C8.21333 10.4873 7.86203 10.5605 7.50716 10.5605C7.15229 10.5605 6.80099 10.4873 6.47389 10.3453C6.14678 10.2032 5.85045 9.99516 5.6023 9.7333C5.35414 9.47143 5.15916 9.16104 5.02879 8.82034C4.89842 8.47964 4.83529 8.11548 4.8431 7.74925C4.85843 7.03039 5.14585 6.34631 5.64378 5.8435C6.14172 5.3407 6.8106 5.05914 7.50716 5.05914C8.20373 5.05914 8.8726 5.3407 9.37054 5.8435C9.86848 6.34631 10.1559 7.03039 10.1712 7.74925V7.74925Z" fill="white"/>
</svg>
