<svg width="29" height="30" viewBox="0 0 29 30" fill="none" xmlns="http://www.w3.org/2000/svg">
<path d="M7.85477 12.5001C7.58531 12.5001 7.32673 12.5426 7.06935 12.5813C7.15273 12.2913 7.23852 11.9963 7.37627 11.7313C7.51402 11.3463 7.7291 11.0126 7.94298 10.6763C8.12181 10.3126 8.43719 10.0663 8.66919 9.7551C8.91206 9.4526 9.24315 9.25135 9.50535 9.0001C9.76273 8.7376 10.0999 8.60635 10.3681 8.42135C10.6484 8.2551 10.8925 8.07135 11.1535 7.98385L11.8048 7.70635L12.3776 7.4601L11.7915 5.0376L11.0701 5.2176C10.8394 5.2776 10.5578 5.3476 10.2376 5.43135C9.91014 5.49385 9.56094 5.6651 9.17185 5.82135C8.7876 5.99885 8.34294 6.11885 7.92969 6.40385C7.51402 6.67635 7.03431 6.90385 6.61139 7.26885C6.20177 7.6451 5.70756 7.97135 5.34264 8.4501C4.94389 8.8976 4.54998 9.3676 4.24427 9.9026C3.89023 10.4126 3.64977 10.9726 3.39602 11.5263C3.16644 12.0801 2.98156 12.6463 2.83052 13.1963C2.54414 14.2988 2.41606 15.3463 2.36652 16.2426C2.32544 17.1401 2.3496 17.8863 2.40035 18.4263C2.41848 18.6813 2.45231 18.9288 2.47648 19.1001L2.50669 19.3101L2.5381 19.3026C2.75302 20.3411 3.24776 21.2955 3.9651 22.0553C4.68244 22.8151 5.59306 23.3493 6.59163 23.5961C7.59019 23.8429 8.63589 23.7922 9.60776 23.4499C10.5796 23.1076 11.438 22.4876 12.0835 21.6617C12.729 20.8358 13.1352 19.8377 13.2553 18.783C13.3754 17.7282 13.2043 16.6598 12.762 15.7014C12.3196 14.743 11.624 13.9337 10.7556 13.3672C9.88715 12.8006 8.88144 12.5 7.85477 12.5001ZM21.1464 12.5001C20.877 12.5001 20.6184 12.5426 20.361 12.5813C20.4444 12.2913 20.5302 11.9963 20.6679 11.7313C20.8057 11.3463 21.0208 11.0126 21.2346 10.6763C21.4135 10.3126 21.7289 10.0663 21.9609 9.7551C22.2037 9.4526 22.5348 9.25135 22.797 9.0001C23.0544 8.7376 23.3915 8.60635 23.6598 8.42135C23.9401 8.2551 24.1842 8.07135 24.4452 7.98385L25.0965 7.70635L25.6692 7.4601L25.0832 5.0376L24.3618 5.2176C24.131 5.2776 23.8495 5.3476 23.5293 5.43135C23.2018 5.49385 22.8526 5.6651 22.4635 5.82135C22.0805 6.0001 21.6346 6.11885 21.2214 6.4051C20.8057 6.6776 20.326 6.9051 19.9031 7.2701C19.4934 7.64635 18.9992 7.9726 18.6343 8.4501C18.2356 8.8976 17.8416 9.3676 17.5359 9.9026C17.1819 10.4126 16.9414 10.9726 16.6877 11.5263C16.4581 12.0801 16.2732 12.6463 16.1222 13.1963C15.8358 14.2988 15.7077 15.3463 15.6582 16.2426C15.6171 17.1401 15.6413 17.8863 15.692 18.4263C15.7101 18.6813 15.744 18.9288 15.7681 19.1001L15.7984 19.3101L15.8298 19.3026C16.0447 20.3411 16.5394 21.2955 17.2568 22.0553C17.9741 22.8151 18.8847 23.3493 19.8833 23.5961C20.8819 23.8429 21.9276 23.7922 22.8994 23.4499C23.8713 23.1076 24.7296 22.4876 25.3751 21.6617C26.0206 20.8358 26.4269 19.8377 26.547 18.783C26.6671 17.7282 26.496 16.6598 26.0536 15.7014C25.6113 14.743 24.9156 13.9337 24.0472 13.3672C23.1788 12.8006 22.1731 12.5 21.1464 12.5001Z" fill="white"/>
</svg>
