<svg width="101" height="22" viewBox="0 0 101 22" fill="none" xmlns="http://www.w3.org/2000/svg">
<path d="M5.54492 19.7266L6.89909 13.53L2.35742 9.36214L8.35742 8.81083L10.6908 2.96704L13.0241 8.81083L19.0241 9.36214L14.4824 13.53L15.8366 19.7266L10.6908 16.4408L5.54492 19.7266Z" fill="#FFD700"/>
<path d="M25.5469 19.7266L26.901 13.53L22.3594 9.36214L28.3594 8.81083L30.6927 2.96704L33.026 8.81083L39.026 9.36214L34.4844 13.53L35.8385 19.7266L30.6927 16.4408L25.5469 19.7266Z" fill="#FFD700"/>
<path d="M45.5469 19.7266L46.901 13.53L42.3594 9.36214L48.3594 8.81083L50.6927 2.96704L53.026 8.81083L59.026 9.36214L54.4844 13.53L55.8385 19.7266L50.6927 16.4408L45.5469 19.7266Z" fill="#FFD700"/>
<path d="M65.5469 19.7266L66.901 13.53L62.3594 9.36214L68.3594 8.81083L70.6927 2.96704L73.026 8.81083L79.026 9.36214L74.4844 13.53L75.8385 19.7266L70.6927 16.4408L65.5469 19.7266Z" fill="#FFD700"/>
<path d="M85.2148 19.7266L86.569 13.53L82.0273 9.36214L88.0273 8.81083L90.3607 2.96704L92.694 8.81083L98.694 9.36214L94.1523 13.53L95.5065 19.7266L90.3607 16.4408L85.2148 19.7266Z" fill="#FFD700"/>
</svg>
