<svg width="3290" height="2338" viewBox="0 0 3290 2338" fill="none" xmlns="http://www.w3.org/2000/svg">
<path d="M151.03 1.76093L1.6709 181.363" stroke="#FEFCEB" stroke-opacity="0.65" stroke-width="4"/>
<path d="M300.388 1.76093L151.029 181.363" stroke="#FEFCEB" stroke-opacity="0.65" stroke-width="4"/>
<path d="M449.747 1.76093L300.389 181.363" stroke="#FEFCEB" stroke-opacity="0.65" stroke-width="4"/>
<path d="M599.106 1.76093L449.747 181.363" stroke="#FEFCEB" stroke-opacity="0.65" stroke-width="4"/>
<path d="M748.464 1.76093L599.105 181.363" stroke="#FEFCEB" stroke-opacity="0.65" stroke-width="4"/>
<path d="M897.823 1.76093L748.464 181.363" stroke="#FEFCEB" stroke-opacity="0.65" stroke-width="4"/>
<path d="M1047.18 1.76093L897.823 181.363" stroke="#FEFCEB" stroke-opacity="0.65" stroke-width="4"/>
<path d="M1047.18 1.76093L1196.54 181.363" stroke="#FEFCEB" stroke-opacity="0.65" stroke-width="4"/>
<path d="M1345.9 1.76093L1196.54 181.363" stroke="#FEFCEB" stroke-opacity="0.65" stroke-width="4"/>
<path d="M1495.26 1.76093L1345.9 181.363" stroke="#FEFCEB" stroke-opacity="0.65" stroke-width="4"/>
<path d="M1644.62 1.76093L1495.26 181.363" stroke="#FEFCEB" stroke-opacity="0.65" stroke-width="4"/>
<path d="M1644.62 1.76093L1793.97 181.363" stroke="#FEFCEB" stroke-opacity="0.65" stroke-width="4"/>
<path d="M1943.33 1.76093L1793.97 181.363" stroke="#FEFCEB" stroke-opacity="0.65" stroke-width="4"/>
<path d="M2092.69 1.76093L1943.33 181.363" stroke="#FEFCEB" stroke-opacity="0.65" stroke-width="4"/>
<path d="M2092.69 1.76093L2242.05 181.363" stroke="#FEFCEB" stroke-opacity="0.65" stroke-width="4"/>
<path d="M2391.41 1.76093L2242.05 181.363" stroke="#FEFCEB" stroke-opacity="0.65" stroke-width="4"/>
<path d="M2540.77 1.76093L2391.41 181.363" stroke="#FEFCEB" stroke-opacity="0.65" stroke-width="4"/>
<path d="M2690.13 1.76093L2540.77 181.363" stroke="#FEFCEB" stroke-opacity="0.65" stroke-width="4"/>
<path d="M2839.49 1.76093L2690.13 181.363" stroke="#FEFCEB" stroke-opacity="0.65" stroke-width="4"/>
<path d="M2988.84 1.76093L2839.49 181.363" stroke="#FEFCEB" stroke-opacity="0.65" stroke-width="4"/>
<path d="M3138.2 1.76093L2988.84 181.363" stroke="#FEFCEB" stroke-opacity="0.65" stroke-width="4"/>
<path d="M3287.56 1.76093L3138.2 181.363" stroke="#FEFCEB" stroke-opacity="0.65" stroke-width="4"/>
<path d="M151.03 181.363L1.6709 360.966" stroke="#FEFCEB" stroke-opacity="0.65" stroke-width="4"/>
<path d="M300.388 181.363L151.029 360.966" stroke="#FEFCEB" stroke-opacity="0.65" stroke-width="4"/>
<path d="M449.747 181.363L300.389 360.966" stroke="#FEFCEB" stroke-opacity="0.65" stroke-width="4"/>
<path d="M599.106 181.363L449.747 360.966" stroke="#FEFCEB" stroke-opacity="0.65" stroke-width="4"/>
<path d="M748.464 181.363L599.105 360.966" stroke="#FEFCEB" stroke-opacity="0.65" stroke-width="4"/>
<path d="M748.464 181.363L897.823 360.966" stroke="#FEFCEB" stroke-opacity="0.65" stroke-width="4"/>
<path d="M1047.18 181.363L897.823 360.966" stroke="#FEFCEB" stroke-opacity="0.65" stroke-width="4"/>
<path d="M1196.54 181.363L1047.18 360.966" stroke="#FEFCEB" stroke-opacity="0.65" stroke-width="4"/>
<path d="M1345.9 181.363L1196.54 360.966" stroke="#FEFCEB" stroke-opacity="0.65" stroke-width="4"/>
<path d="M1495.26 181.363L1345.9 360.966" stroke="#FEFCEB" stroke-opacity="0.65" stroke-width="4"/>
<path d="M1644.62 181.363L1495.26 360.966" stroke="#FEFCEB" stroke-opacity="0.65" stroke-width="4"/>
<path d="M1793.97 181.363L1644.62 360.966" stroke="#FEFCEB" stroke-opacity="0.65" stroke-width="4"/>
<path d="M1943.33 181.363L1793.97 360.966" stroke="#FEFCEB" stroke-opacity="0.65" stroke-width="4"/>
<path d="M2092.69 181.363L1943.33 360.966" stroke="#FEFCEB" stroke-opacity="0.65" stroke-width="4"/>
<path d="M2242.05 181.363L2092.69 360.966" stroke="#FEFCEB" stroke-opacity="0.65" stroke-width="4"/>
<path d="M2391.41 181.363L2242.05 360.966" stroke="#FEFCEB" stroke-opacity="0.65" stroke-width="4"/>
<path d="M2540.77 181.363L2391.41 360.966" stroke="#FEFCEB" stroke-opacity="0.65" stroke-width="4"/>
<path d="M2690.13 181.363L2540.77 360.966" stroke="#FEFCEB" stroke-opacity="0.65" stroke-width="4"/>
<path d="M2839.49 181.363L2690.13 360.966" stroke="#FEFCEB" stroke-opacity="0.65" stroke-width="4"/>
<path d="M2988.84 181.363L2839.49 360.966" stroke="#FEFCEB" stroke-opacity="0.65" stroke-width="4"/>
<path d="M3138.2 181.363L2988.84 360.966" stroke="#FEFCEB" stroke-opacity="0.65" stroke-width="4"/>
<path d="M3287.56 181.363L3138.2 360.966" stroke="#FEFCEB" stroke-opacity="0.65" stroke-width="4"/>
<path d="M151.03 360.966L1.6709 540.568" stroke="#FEFCEB" stroke-opacity="0.65" stroke-width="4"/>
<path d="M300.388 360.966L151.029 540.568" stroke="#FEFCEB" stroke-opacity="0.65" stroke-width="4"/>
<path d="M449.747 360.966L300.389 540.568" stroke="#FEFCEB" stroke-opacity="0.65" stroke-width="4"/>
<path d="M599.106 360.966L449.747 540.568" stroke="#FEFCEB" stroke-opacity="0.65" stroke-width="4"/>
<path d="M748.464 360.966L599.105 540.568" stroke="#FEFCEB" stroke-opacity="0.65" stroke-width="4"/>
<path d="M897.823 360.966L748.464 540.568" stroke="#FEFCEB" stroke-opacity="0.65" stroke-width="4"/>
<path d="M1047.18 360.966L897.823 540.568" stroke="#FEFCEB" stroke-opacity="0.65" stroke-width="4"/>
<path d="M1196.54 360.966L1047.18 540.568" stroke="#FEFCEB" stroke-opacity="0.65" stroke-width="4"/>
<path d="M1345.9 360.966L1196.54 540.568" stroke="#FEFCEB" stroke-opacity="0.65" stroke-width="4"/>
<path d="M1495.26 360.966L1345.9 540.568" stroke="#FEFCEB" stroke-opacity="0.65" stroke-width="4"/>
<path d="M1644.62 360.966L1495.26 540.568" stroke="#FEFCEB" stroke-opacity="0.65" stroke-width="4"/>
<path d="M1793.97 360.966L1644.62 540.568" stroke="#FEFCEB" stroke-opacity="0.65" stroke-width="4"/>
<path d="M1943.33 360.966L1793.97 540.568" stroke="#FEFCEB" stroke-opacity="0.65" stroke-width="4"/>
<path d="M2092.69 360.966L1943.33 540.568" stroke="#FEFCEB" stroke-opacity="0.65" stroke-width="4"/>
<path d="M2242.05 360.966L2092.69 540.568" stroke="#FEFCEB" stroke-opacity="0.65" stroke-width="4"/>
<path d="M2242.05 360.966L2391.41 540.568" stroke="#FEFCEB" stroke-opacity="0.65" stroke-width="4"/>
<path d="M2391.41 360.966L2540.77 540.568" stroke="#FEFCEB" stroke-opacity="0.65" stroke-width="4"/>
<path d="M2690.13 360.966L2540.77 540.568" stroke="#FEFCEB" stroke-opacity="0.65" stroke-width="4"/>
<path d="M2839.49 360.966L2690.13 540.568" stroke="#FEFCEB" stroke-opacity="0.65" stroke-width="4"/>
<path d="M2839.49 360.966L2988.84 540.568" stroke="#FEFCEB" stroke-opacity="0.65" stroke-width="4"/>
<path d="M2988.84 360.966L3138.2 540.568" stroke="#FEFCEB" stroke-opacity="0.65" stroke-width="4"/>
<path d="M3138.2 360.966L3287.56 540.568" stroke="#FEFCEB" stroke-opacity="0.65" stroke-width="4"/>
<path d="M1.6709 540.568L151.03 720.171" stroke="#FEFCEB" stroke-opacity="0.65" stroke-width="4"/>
<path d="M300.388 540.568L151.029 720.171" stroke="#FEFCEB" stroke-opacity="0.65" stroke-width="4"/>
<path d="M449.747 540.568L300.389 720.171" stroke="#FEFCEB" stroke-opacity="0.65" stroke-width="4"/>
<path d="M599.106 540.568L449.747 720.171" stroke="#FEFCEB" stroke-opacity="0.65" stroke-width="4"/>
<path d="M748.464 540.568L599.105 720.171" stroke="#FEFCEB" stroke-opacity="0.65" stroke-width="4"/>
<path d="M897.823 540.568L748.464 720.171" stroke="#FEFCEB" stroke-opacity="0.65" stroke-width="4"/>
<path d="M1047.18 540.568L897.823 720.171" stroke="#FEFCEB" stroke-opacity="0.65" stroke-width="4"/>
<path d="M1196.54 540.568L1047.18 720.171" stroke="#FEFCEB" stroke-opacity="0.65" stroke-width="4"/>
<path d="M1345.9 540.568L1196.54 720.171" stroke="#FEFCEB" stroke-opacity="0.65" stroke-width="4"/>
<path d="M1345.9 540.568L1495.26 720.171" stroke="#FEFCEB" stroke-opacity="0.65" stroke-width="4"/>
<path d="M1644.62 540.568L1495.26 720.171" stroke="#FEFCEB" stroke-opacity="0.65" stroke-width="4"/>
<path d="M1793.97 540.568L1644.62 720.171" stroke="#FEFCEB" stroke-opacity="0.65" stroke-width="4"/>
<path d="M1943.33 540.568L1793.97 720.171" stroke="#FEFCEB" stroke-opacity="0.65" stroke-width="4"/>
<path d="M2092.69 540.568L1943.33 720.171" stroke="#FEFCEB" stroke-opacity="0.65" stroke-width="4"/>
<path d="M2242.05 540.568L2092.69 720.171" stroke="#FEFCEB" stroke-opacity="0.65" stroke-width="4"/>
<path d="M2391.41 540.568L2242.05 720.171" stroke="#FEFCEB" stroke-opacity="0.65" stroke-width="4"/>
<path d="M2391.41 540.568L2540.77 720.171" stroke="#FEFCEB" stroke-opacity="0.65" stroke-width="4"/>
<path d="M2690.13 540.568L2540.77 720.171" stroke="#FEFCEB" stroke-opacity="0.65" stroke-width="4"/>
<path d="M2690.13 540.568L2839.49 720.171" stroke="#FEFCEB" stroke-opacity="0.65" stroke-width="4"/>
<path d="M2988.84 540.568L2839.49 720.171" stroke="#FEFCEB" stroke-opacity="0.65" stroke-width="4"/>
<path d="M3138.2 540.568L2988.84 720.171" stroke="#FEFCEB" stroke-opacity="0.65" stroke-width="4"/>
<path d="M3287.56 540.568L3138.2 720.171" stroke="#FEFCEB" stroke-opacity="0.65" stroke-width="4"/>
<path d="M151.03 720.171L1.6709 899.773" stroke="#FEFCEB" stroke-opacity="0.65" stroke-width="4"/>
<path d="M300.388 720.171L151.029 899.773" stroke="#FEFCEB" stroke-opacity="0.65" stroke-width="4"/>
<path d="M449.747 720.171L300.389 899.773" stroke="#FEFCEB" stroke-opacity="0.65" stroke-width="4"/>
<path d="M599.106 720.171L449.747 899.773" stroke="#FEFCEB" stroke-opacity="0.65" stroke-width="4"/>
<path d="M748.464 720.171L599.105 899.773" stroke="#FEFCEB" stroke-opacity="0.65" stroke-width="4"/>
<path d="M897.823 720.171L748.464 899.773" stroke="#FEFCEB" stroke-opacity="0.65" stroke-width="4"/>
<path d="M1047.18 720.171L897.823 899.773" stroke="#FEFCEB" stroke-opacity="0.65" stroke-width="4"/>
<path d="M1196.54 720.171L1047.18 899.773" stroke="#FEFCEB" stroke-opacity="0.65" stroke-width="4"/>
<path d="M1345.9 720.171L1196.54 899.773" stroke="#FEFCEB" stroke-opacity="0.65" stroke-width="4"/>
<path d="M1495.26 720.171L1345.9 899.773" stroke="#FEFCEB" stroke-opacity="0.65" stroke-width="4"/>
<path d="M1644.62 720.171L1495.26 899.773" stroke="#FEFCEB" stroke-opacity="0.65" stroke-width="4"/>
<path d="M1644.62 720.171L1793.97 899.773" stroke="#FEFCEB" stroke-opacity="0.65" stroke-width="4"/>
<path d="M1943.33 720.171L1793.97 899.773" stroke="#FEFCEB" stroke-opacity="0.65" stroke-width="4"/>
<path d="M2092.69 720.171L1943.33 899.773" stroke="#FEFCEB" stroke-opacity="0.65" stroke-width="4"/>
<path d="M2242.05 720.171L2092.69 899.773" stroke="#FEFCEB" stroke-opacity="0.65" stroke-width="4"/>
<path d="M2391.41 720.171L2242.05 899.773" stroke="#FEFCEB" stroke-opacity="0.65" stroke-width="4"/>
<path d="M2391.41 720.171L2540.77 899.773" stroke="#FEFCEB" stroke-opacity="0.65" stroke-width="4"/>
<path d="M2690.13 720.171L2540.77 899.773" stroke="#FEFCEB" stroke-opacity="0.65" stroke-width="4"/>
<path d="M2839.49 720.171L2690.13 899.773" stroke="#FEFCEB" stroke-opacity="0.65" stroke-width="4"/>
<path d="M2988.84 720.171L2839.49 899.773" stroke="#FEFCEB" stroke-opacity="0.65" stroke-width="4"/>
<path d="M2988.84 720.171L3138.2 899.773" stroke="#FEFCEB" stroke-opacity="0.65" stroke-width="4"/>
<path d="M3287.56 720.171L3138.2 899.773" stroke="#FEFCEB" stroke-opacity="0.65" stroke-width="4"/>
<path d="M151.03 899.773L1.6709 1079.38" stroke="#FEFCEB" stroke-opacity="0.65" stroke-width="4"/>
<path d="M300.388 899.773L151.029 1079.38" stroke="#FEFCEB" stroke-opacity="0.65" stroke-width="4"/>
<path d="M449.747 899.773L300.389 1079.38" stroke="#FEFCEB" stroke-opacity="0.65" stroke-width="4"/>
<path d="M599.106 899.773L449.747 1079.38" stroke="#FEFCEB" stroke-opacity="0.65" stroke-width="4"/>
<path d="M748.464 899.773L599.105 1079.38" stroke="#FEFCEB" stroke-opacity="0.65" stroke-width="4"/>
<path d="M897.823 899.773L748.464 1079.38" stroke="#FEFCEB" stroke-opacity="0.65" stroke-width="4"/>
<path d="M1047.18 899.773L897.823 1079.38" stroke="#FEFCEB" stroke-opacity="0.65" stroke-width="4"/>
<path d="M1196.54 899.773L1047.18 1079.38" stroke="#FEFCEB" stroke-opacity="0.65" stroke-width="4"/>
<path d="M1345.9 899.773L1196.54 1079.38" stroke="#FEFCEB" stroke-opacity="0.65" stroke-width="4"/>
<path d="M1495.26 899.773L1345.9 1079.38" stroke="#FEFCEB" stroke-opacity="0.65" stroke-width="4"/>
<path d="M1644.62 899.773L1495.26 1079.38" stroke="#FEFCEB" stroke-opacity="0.65" stroke-width="4"/>
<path d="M1793.97 899.773L1644.62 1079.38" stroke="#FEFCEB" stroke-opacity="0.65" stroke-width="4"/>
<path d="M1943.33 899.773L1793.97 1079.38" stroke="#FEFCEB" stroke-opacity="0.65" stroke-width="4"/>
<path d="M1943.33 899.773L2092.69 1079.38" stroke="#FEFCEB" stroke-opacity="0.65" stroke-width="4"/>
<path d="M2242.05 899.773L2092.69 1079.38" stroke="#FEFCEB" stroke-opacity="0.65" stroke-width="4"/>
<path d="M2391.41 899.773L2242.05 1079.38" stroke="#FEFCEB" stroke-opacity="0.65" stroke-width="4"/>
<path d="M2540.77 899.773L2391.41 1079.38" stroke="#FEFCEB" stroke-opacity="0.65" stroke-width="4"/>
<path d="M2690.13 899.773L2540.77 1079.38" stroke="#FEFCEB" stroke-opacity="0.65" stroke-width="4"/>
<path d="M2839.49 899.773L2690.13 1079.38" stroke="#FEFCEB" stroke-opacity="0.65" stroke-width="4"/>
<path d="M2988.84 899.773L2839.49 1079.38" stroke="#FEFCEB" stroke-opacity="0.65" stroke-width="4"/>
<path d="M3138.2 899.773L2988.84 1079.38" stroke="#FEFCEB" stroke-opacity="0.65" stroke-width="4"/>
<path d="M3287.56 899.773L3138.2 1079.38" stroke="#FEFCEB" stroke-opacity="0.65" stroke-width="4"/>
<path d="M151.03 1079.38L1.6709 1258.98" stroke="#FEFCEB" stroke-opacity="0.65" stroke-width="4"/>
<path d="M300.388 1079.38L151.029 1258.98" stroke="#FEFCEB" stroke-opacity="0.65" stroke-width="4"/>
<path d="M449.747 1079.38L300.389 1258.98" stroke="#FEFCEB" stroke-opacity="0.65" stroke-width="4"/>
<path d="M599.106 1079.38L449.747 1258.98" stroke="#FEFCEB" stroke-opacity="0.65" stroke-width="4"/>
<path d="M748.464 1079.38L599.105 1258.98" stroke="#FEFCEB" stroke-opacity="0.65" stroke-width="4"/>
<path d="M897.823 1079.38L748.464 1258.98" stroke="#FEFCEB" stroke-opacity="0.65" stroke-width="4"/>
<path d="M1047.18 1079.38L897.823 1258.98" stroke="#FEFCEB" stroke-opacity="0.65" stroke-width="4"/>
<path d="M1196.54 1079.38L1047.18 1258.98" stroke="#FEFCEB" stroke-opacity="0.65" stroke-width="4"/>
<path d="M1345.9 1079.38L1196.54 1258.98" stroke="#FEFCEB" stroke-opacity="0.65" stroke-width="4"/>
<path d="M1495.26 1079.38L1345.9 1258.98" stroke="#FEFCEB" stroke-opacity="0.65" stroke-width="4"/>
<path d="M1644.62 1079.38L1495.26 1258.98" stroke="#FEFCEB" stroke-opacity="0.65" stroke-width="4"/>
<path d="M1793.97 1079.38L1644.62 1258.98" stroke="#FEFCEB" stroke-opacity="0.65" stroke-width="4"/>
<path d="M1943.33 1079.38L1793.97 1258.98" stroke="#FEFCEB" stroke-opacity="0.65" stroke-width="4"/>
<path d="M2092.69 1079.38L1943.33 1258.98" stroke="#FEFCEB" stroke-opacity="0.65" stroke-width="4"/>
<path d="M2242.05 1079.38L2092.69 1258.98" stroke="#FEFCEB" stroke-opacity="0.65" stroke-width="4"/>
<path d="M2391.41 1079.38L2242.05 1258.98" stroke="#FEFCEB" stroke-opacity="0.65" stroke-width="4"/>
<path d="M2540.77 1079.38L2391.41 1258.98" stroke="#FEFCEB" stroke-opacity="0.65" stroke-width="4"/>
<path d="M2690.13 1079.38L2540.77 1258.98" stroke="#FEFCEB" stroke-opacity="0.65" stroke-width="4"/>
<path d="M2839.49 1079.38L2690.13 1258.98" stroke="#FEFCEB" stroke-opacity="0.65" stroke-width="4"/>
<path d="M2988.84 1079.38L2839.49 1258.98" stroke="#FEFCEB" stroke-opacity="0.65" stroke-width="4"/>
<path d="M3138.2 1079.38L2988.84 1258.98" stroke="#FEFCEB" stroke-opacity="0.65" stroke-width="4"/>
<path d="M3287.56 1079.38L3138.2 1258.98" stroke="#FEFCEB" stroke-opacity="0.65" stroke-width="4"/>
<path d="M151.03 1258.98L1.6709 1438.58" stroke="#FEFCEB" stroke-opacity="0.65" stroke-width="4"/>
<path d="M300.388 1258.98L151.029 1438.58" stroke="#FEFCEB" stroke-opacity="0.65" stroke-width="4"/>
<path d="M449.747 1258.98L300.389 1438.58" stroke="#FEFCEB" stroke-opacity="0.65" stroke-width="4"/>
<path d="M599.106 1258.98L449.747 1438.58" stroke="#FEFCEB" stroke-opacity="0.65" stroke-width="4"/>
<path d="M599.105 1258.98L748.464 1438.58" stroke="#FEFCEB" stroke-opacity="0.65" stroke-width="4"/>
<path d="M897.823 1258.98L748.464 1438.58" stroke="#FEFCEB" stroke-opacity="0.65" stroke-width="4"/>
<path d="M1047.18 1258.98L897.823 1438.58" stroke="#FEFCEB" stroke-opacity="0.65" stroke-width="4"/>
<path d="M1196.54 1258.98L1047.18 1438.58" stroke="#FEFCEB" stroke-opacity="0.65" stroke-width="4"/>
<path d="M1345.9 1258.98L1196.54 1438.58" stroke="#FEFCEB" stroke-opacity="0.65" stroke-width="4"/>
<path d="M1495.26 1258.98L1345.9 1438.58" stroke="#FEFCEB" stroke-opacity="0.65" stroke-width="4"/>
<path d="M1644.62 1258.98L1495.26 1438.58" stroke="#FEFCEB" stroke-opacity="0.65" stroke-width="4"/>
<path d="M1793.97 1258.98L1644.62 1438.58" stroke="#FEFCEB" stroke-opacity="0.65" stroke-width="4"/>
<path d="M1943.33 1258.98L1793.97 1438.58" stroke="#FEFCEB" stroke-opacity="0.65" stroke-width="4"/>
<path d="M2092.69 1258.98L1943.33 1438.58" stroke="#FEFCEB" stroke-opacity="0.65" stroke-width="4"/>
<path d="M2242.05 1258.98L2092.69 1438.58" stroke="#FEFCEB" stroke-opacity="0.65" stroke-width="4"/>
<path d="M2391.41 1258.98L2242.05 1438.58" stroke="#FEFCEB" stroke-opacity="0.65" stroke-width="4"/>
<path d="M2540.77 1258.98L2391.41 1438.58" stroke="#FEFCEB" stroke-opacity="0.65" stroke-width="4"/>
<path d="M2690.13 1258.98L2540.77 1438.58" stroke="#FEFCEB" stroke-opacity="0.65" stroke-width="4"/>
<path d="M2839.49 1258.98L2690.13 1438.58" stroke="#FEFCEB" stroke-opacity="0.65" stroke-width="4"/>
<path d="M2988.84 1258.98L2839.49 1438.58" stroke="#FEFCEB" stroke-opacity="0.65" stroke-width="4"/>
<path d="M2988.84 1258.98L3138.2 1438.58" stroke="#FEFCEB" stroke-opacity="0.65" stroke-width="4"/>
<path d="M3287.56 1258.98L3138.2 1438.58" stroke="#FEFCEB" stroke-opacity="0.65" stroke-width="4"/>
<path d="M151.03 1438.58L1.6709 1618.18" stroke="#FEFCEB" stroke-opacity="0.65" stroke-width="4"/>
<path d="M300.388 1438.58L151.029 1618.18" stroke="#FEFCEB" stroke-opacity="0.65" stroke-width="4"/>
<path d="M449.747 1438.58L300.389 1618.18" stroke="#FEFCEB" stroke-opacity="0.65" stroke-width="4"/>
<path d="M599.106 1438.58L449.747 1618.18" stroke="#FEFCEB" stroke-opacity="0.65" stroke-width="4"/>
<path d="M748.464 1438.58L599.105 1618.18" stroke="#FEFCEB" stroke-opacity="0.65" stroke-width="4"/>
<path d="M897.823 1438.58L748.464 1618.18" stroke="#FEFCEB" stroke-opacity="0.65" stroke-width="4"/>
<path d="M1047.18 1438.58L897.823 1618.18" stroke="#FEFCEB" stroke-opacity="0.65" stroke-width="4"/>
<path d="M1196.54 1438.58L1047.18 1618.18" stroke="#FEFCEB" stroke-opacity="0.65" stroke-width="4"/>
<path d="M1196.54 1438.58L1345.9 1618.18" stroke="#FEFCEB" stroke-opacity="0.65" stroke-width="4"/>
<path d="M1495.26 1438.58L1345.9 1618.18" stroke="#FEFCEB" stroke-opacity="0.65" stroke-width="4"/>
<path d="M1644.62 1438.58L1495.26 1618.18" stroke="#FEFCEB" stroke-opacity="0.65" stroke-width="4"/>
<path d="M1793.97 1438.58L1644.62 1618.18" stroke="#FEFCEB" stroke-opacity="0.65" stroke-width="4"/>
<path d="M1943.33 1438.58L1793.97 1618.18" stroke="#FEFCEB" stroke-opacity="0.65" stroke-width="4"/>
<path d="M2092.69 1438.58L1943.33 1618.18" stroke="#FEFCEB" stroke-opacity="0.65" stroke-width="4"/>
<path d="M2242.05 1438.58L2092.69 1618.18" stroke="#FEFCEB" stroke-opacity="0.65" stroke-width="4"/>
<path d="M2391.41 1438.58L2242.05 1618.18" stroke="#FEFCEB" stroke-opacity="0.65" stroke-width="4"/>
<path d="M2540.77 1438.58L2391.41 1618.18" stroke="#FEFCEB" stroke-opacity="0.65" stroke-width="4"/>
<path d="M2540.77 1438.58L2690.13 1618.18" stroke="#FEFCEB" stroke-opacity="0.65" stroke-width="4"/>
<path d="M2839.49 1438.58L2690.13 1618.18" stroke="#FEFCEB" stroke-opacity="0.65" stroke-width="4"/>
<path d="M2839.49 1438.58L2988.84 1618.18" stroke="#FEFCEB" stroke-opacity="0.65" stroke-width="4"/>
<path d="M2988.84 1438.58L3138.2 1618.18" stroke="#FEFCEB" stroke-opacity="0.65" stroke-width="4"/>
<path d="M3287.56 1438.58L3138.2 1618.18" stroke="#FEFCEB" stroke-opacity="0.65" stroke-width="4"/>
<path d="M151.03 1618.18L1.6709 1797.79" stroke="#FEFCEB" stroke-opacity="0.65" stroke-width="4"/>
<path d="M300.388 1618.18L151.029 1797.79" stroke="#FEFCEB" stroke-opacity="0.65" stroke-width="4"/>
<path d="M449.747 1618.18L300.389 1797.79" stroke="#FEFCEB" stroke-opacity="0.65" stroke-width="4"/>
<path d="M599.106 1618.18L449.747 1797.79" stroke="#FEFCEB" stroke-opacity="0.65" stroke-width="4"/>
<path d="M748.464 1618.18L599.105 1797.79" stroke="#FEFCEB" stroke-opacity="0.65" stroke-width="4"/>
<path d="M897.823 1618.18L748.464 1797.79" stroke="#FEFCEB" stroke-opacity="0.65" stroke-width="4"/>
<path d="M1047.18 1618.18L897.823 1797.79" stroke="#FEFCEB" stroke-opacity="0.65" stroke-width="4"/>
<path d="M1196.54 1618.18L1047.18 1797.79" stroke="#FEFCEB" stroke-opacity="0.65" stroke-width="4"/>
<path d="M1345.9 1618.18L1196.54 1797.79" stroke="#FEFCEB" stroke-opacity="0.65" stroke-width="4"/>
<path d="M1495.26 1618.18L1345.9 1797.79" stroke="#FEFCEB" stroke-opacity="0.65" stroke-width="4"/>
<path d="M1495.26 1618.18L1644.62 1797.79" stroke="#FEFCEB" stroke-opacity="0.65" stroke-width="4"/>
<path d="M1793.97 1618.18L1644.62 1797.79" stroke="#FEFCEB" stroke-opacity="0.65" stroke-width="4"/>
<path d="M1943.33 1618.18L1793.97 1797.79" stroke="#FEFCEB" stroke-opacity="0.65" stroke-width="4"/>
<path d="M2092.69 1618.18L1943.33 1797.79" stroke="#FEFCEB" stroke-opacity="0.65" stroke-width="4"/>
<path d="M2242.05 1618.18L2092.69 1797.79" stroke="#FEFCEB" stroke-opacity="0.65" stroke-width="4"/>
<path d="M2242.05 1618.18L2391.41 1797.79" stroke="#FEFCEB" stroke-opacity="0.65" stroke-width="4"/>
<path d="M2540.77 1618.18L2391.41 1797.79" stroke="#FEFCEB" stroke-opacity="0.65" stroke-width="4"/>
<path d="M2690.13 1618.18L2540.77 1797.79" stroke="#FEFCEB" stroke-opacity="0.65" stroke-width="4"/>
<path d="M2839.49 1618.18L2690.13 1797.79" stroke="#FEFCEB" stroke-opacity="0.65" stroke-width="4"/>
<path d="M2988.84 1618.18L2839.49 1797.79" stroke="#FEFCEB" stroke-opacity="0.65" stroke-width="4"/>
<path d="M3138.2 1618.18L2988.84 1797.79" stroke="#FEFCEB" stroke-opacity="0.65" stroke-width="4"/>
<path d="M3287.56 1618.18L3138.2 1797.79" stroke="#FEFCEB" stroke-opacity="0.65" stroke-width="4"/>
<path d="M151.03 1797.79L1.6709 1977.39" stroke="#FEFCEB" stroke-opacity="0.65" stroke-width="4"/>
<path d="M300.388 1797.79L151.029 1977.39" stroke="#FEFCEB" stroke-opacity="0.65" stroke-width="4"/>
<path d="M449.747 1797.79L300.389 1977.39" stroke="#FEFCEB" stroke-opacity="0.65" stroke-width="4"/>
<path d="M599.106 1797.79L449.747 1977.39" stroke="#FEFCEB" stroke-opacity="0.65" stroke-width="4"/>
<path d="M748.464 1797.79L599.105 1977.39" stroke="#FEFCEB" stroke-opacity="0.65" stroke-width="4"/>
<path d="M748.464 1797.79L897.823 1977.39" stroke="#FEFCEB" stroke-opacity="0.65" stroke-width="4"/>
<path d="M897.823 1797.79L1047.18 1977.39" stroke="#FEFCEB" stroke-opacity="0.65" stroke-width="4"/>
<path d="M1196.54 1797.79L1047.18 1977.39" stroke="#FEFCEB" stroke-opacity="0.65" stroke-width="4"/>
<path d="M1196.54 1797.79L1345.9 1977.39" stroke="#FEFCEB" stroke-opacity="0.65" stroke-width="4"/>
<path d="M1495.26 1797.79L1345.9 1977.39" stroke="#FEFCEB" stroke-opacity="0.65" stroke-width="4"/>
<path d="M1644.62 1797.79L1495.26 1977.39" stroke="#FEFCEB" stroke-opacity="0.65" stroke-width="4"/>
<path d="M1793.97 1797.79L1644.62 1977.39" stroke="#FEFCEB" stroke-opacity="0.65" stroke-width="4"/>
<path d="M1793.97 1797.79L1943.33 1977.39" stroke="#FEFCEB" stroke-opacity="0.65" stroke-width="4"/>
<path d="M2092.69 1797.79L1943.33 1977.39" stroke="#FEFCEB" stroke-opacity="0.65" stroke-width="4"/>
<path d="M2242.05 1797.79L2092.69 1977.39" stroke="#FEFCEB" stroke-opacity="0.65" stroke-width="4"/>
<path d="M2391.41 1797.79L2242.05 1977.39" stroke="#FEFCEB" stroke-opacity="0.65" stroke-width="4"/>
<path d="M2540.77 1797.79L2391.41 1977.39" stroke="#FEFCEB" stroke-opacity="0.65" stroke-width="4"/>
<path d="M2690.13 1797.79L2540.77 1977.39" stroke="#FEFCEB" stroke-opacity="0.65" stroke-width="4"/>
<path d="M2839.49 1797.79L2690.13 1977.39" stroke="#FEFCEB" stroke-opacity="0.65" stroke-width="4"/>
<path d="M2988.84 1797.79L2839.49 1977.39" stroke="#FEFCEB" stroke-opacity="0.65" stroke-width="4"/>
<path d="M3138.2 1797.79L2988.84 1977.39" stroke="#FEFCEB" stroke-opacity="0.65" stroke-width="4"/>
<path d="M3287.56 1797.79L3138.2 1977.39" stroke="#FEFCEB" stroke-opacity="0.65" stroke-width="4"/>
<path d="M151.03 1977.39L1.6709 2156.99" stroke="#FEFCEB" stroke-opacity="0.65" stroke-width="4"/>
<path d="M300.388 1977.39L151.029 2156.99" stroke="#FEFCEB" stroke-opacity="0.65" stroke-width="4"/>
<path d="M449.747 1977.39L300.389 2156.99" stroke="#FEFCEB" stroke-opacity="0.65" stroke-width="4"/>
<path d="M599.106 1977.39L449.747 2156.99" stroke="#FEFCEB" stroke-opacity="0.65" stroke-width="4"/>
<path d="M748.464 1977.39L599.105 2156.99" stroke="#FEFCEB" stroke-opacity="0.65" stroke-width="4"/>
<path d="M897.823 1977.39L748.464 2156.99" stroke="#FEFCEB" stroke-opacity="0.65" stroke-width="4"/>
<path d="M1047.18 1977.39L897.823 2156.99" stroke="#FEFCEB" stroke-opacity="0.65" stroke-width="4"/>
<path d="M1047.18 1977.39L1196.54 2156.99" stroke="#FEFCEB" stroke-opacity="0.65" stroke-width="4"/>
<path d="M1345.9 1977.39L1196.54 2156.99" stroke="#FEFCEB" stroke-opacity="0.65" stroke-width="4"/>
<path d="M1495.26 1977.39L1345.9 2156.99" stroke="#FEFCEB" stroke-opacity="0.65" stroke-width="4"/>
<path d="M1644.62 1977.39L1495.26 2156.99" stroke="#FEFCEB" stroke-opacity="0.65" stroke-width="4"/>
<path d="M1793.97 1977.39L1644.62 2156.99" stroke="#FEFCEB" stroke-opacity="0.65" stroke-width="4"/>
<path d="M1943.33 1977.39L1793.97 2156.99" stroke="#FEFCEB" stroke-opacity="0.65" stroke-width="4"/>
<path d="M2092.69 1977.39L1943.33 2156.99" stroke="#FEFCEB" stroke-opacity="0.65" stroke-width="4"/>
<path d="M2092.69 1977.39L2242.05 2156.99" stroke="#FEFCEB" stroke-opacity="0.65" stroke-width="4"/>
<path d="M2391.41 1977.39L2242.05 2156.99" stroke="#FEFCEB" stroke-opacity="0.65" stroke-width="4"/>
<path d="M2540.77 1977.39L2391.41 2156.99" stroke="#FEFCEB" stroke-opacity="0.65" stroke-width="4"/>
<path d="M2690.13 1977.39L2540.77 2156.99" stroke="#FEFCEB" stroke-opacity="0.65" stroke-width="4"/>
<path d="M2839.49 1977.39L2690.13 2156.99" stroke="#FEFCEB" stroke-opacity="0.65" stroke-width="4"/>
<path d="M2839.49 1977.39L2988.84 2156.99" stroke="#FEFCEB" stroke-opacity="0.65" stroke-width="4"/>
<path d="M2988.84 1977.39L3138.2 2156.99" stroke="#FEFCEB" stroke-opacity="0.65" stroke-width="4"/>
<path d="M3287.56 1977.39L3138.2 2156.99" stroke="#FEFCEB" stroke-opacity="0.65" stroke-width="4"/>
<path d="M151.03 2156.99L1.6709 2336.59" stroke="#FEFCEB" stroke-opacity="0.65" stroke-width="4"/>
<path d="M300.388 2156.99L151.029 2336.59" stroke="#FEFCEB" stroke-opacity="0.65" stroke-width="4"/>
<path d="M300.389 2156.99L449.747 2336.59" stroke="#FEFCEB" stroke-opacity="0.65" stroke-width="4"/>
<path d="M599.106 2156.99L449.747 2336.59" stroke="#FEFCEB" stroke-opacity="0.65" stroke-width="4"/>
<path d="M748.464 2156.99L599.105 2336.59" stroke="#FEFCEB" stroke-opacity="0.65" stroke-width="4"/>
<path d="M897.823 2156.99L748.464 2336.59" stroke="#FEFCEB" stroke-opacity="0.65" stroke-width="4"/>
<path d="M1047.18 2156.99L897.823 2336.59" stroke="#FEFCEB" stroke-opacity="0.65" stroke-width="4"/>
<path d="M1196.54 2156.99L1047.18 2336.59" stroke="#FEFCEB" stroke-opacity="0.65" stroke-width="4"/>
<path d="M1345.9 2156.99L1196.54 2336.59" stroke="#FEFCEB" stroke-opacity="0.65" stroke-width="4"/>
<path d="M1495.26 2156.99L1345.9 2336.59" stroke="#FEFCEB" stroke-opacity="0.65" stroke-width="4"/>
<path d="M1644.62 2156.99L1495.26 2336.59" stroke="#FEFCEB" stroke-opacity="0.65" stroke-width="4"/>
<path d="M1793.97 2156.99L1644.62 2336.59" stroke="#FEFCEB" stroke-opacity="0.65" stroke-width="4"/>
<path d="M1943.33 2156.99L1793.97 2336.59" stroke="#FEFCEB" stroke-opacity="0.65" stroke-width="4"/>
<path d="M2092.69 2156.99L1943.33 2336.59" stroke="#FEFCEB" stroke-opacity="0.65" stroke-width="4"/>
<path d="M2242.05 2156.99L2092.69 2336.59" stroke="#FEFCEB" stroke-opacity="0.65" stroke-width="4"/>
<path d="M2391.41 2156.99L2242.05 2336.59" stroke="#FEFCEB" stroke-opacity="0.65" stroke-width="4"/>
<path d="M2540.77 2156.99L2391.41 2336.59" stroke="#FEFCEB" stroke-opacity="0.65" stroke-width="4"/>
<path d="M2690.13 2156.99L2540.77 2336.59" stroke="#FEFCEB" stroke-opacity="0.65" stroke-width="4"/>
<path d="M2839.49 2156.99L2690.13 2336.59" stroke="#FEFCEB" stroke-opacity="0.65" stroke-width="4"/>
<path d="M2988.84 2156.99L2839.49 2336.59" stroke="#FEFCEB" stroke-opacity="0.65" stroke-width="4"/>
<path d="M3138.2 2156.99L2988.84 2336.59" stroke="#FEFCEB" stroke-opacity="0.65" stroke-width="4"/>
<path d="M3287.56 2156.99L3138.2 2336.59" stroke="#FEFCEB" stroke-opacity="0.65" stroke-width="4"/>
</svg>
